<svg width="2934" height="1955" viewBox="0 0 2934 1955" fill="none" xmlns="http://www.w3.org/2000/svg">
<path d="M2364.69 922.869L2364.41 923.016Z" fill="#34509A"/>
<path d="M2364.41 923.016L2242.61 983.789L2244.71 959.189L2329.76 869.403L2364.41 923.016Z" fill="#34509A"/>
<path d="M2364.67 923.403L2364.41 923.016Z" fill="#34509A"/>
<path d="M2250.61 816.736L2529.28 1075.99C2542.39 1088.18 2563.68 1082.92 2569.6 1066.03L2771 490.44C2777.57 471.64 2760.45 453.147 2741.21 458.267L2103.35 627.791C2084.48 632.804 2078.53 656.635 2092.83 669.931L2250.61 816.736Z" fill="#485DB4"/>
<path d="M2685.52 539.907L2329.04 889.629L2244.37 982.376C2237.96 988.816 2227.07 983.323 2228.43 974.349L2252.19 818.109L2685.52 539.907Z" fill="#3C57AF"/>
<path d="M1222.3 851.679C1222.13 851.679 1221.96 851.668 1221.79 851.647C1221.41 851.599 1221.03 851.552 1220.64 851.509C1215.87 850.976 1211.03 850.875 1206.25 851.203C1204.05 851.343 1202.14 849.692 1201.99 847.487C1201.84 845.283 1203.5 843.373 1205.7 843.221C1210.96 842.86 1216.29 842.975 1221.53 843.559C1221.95 843.605 1222.37 843.656 1222.8 843.711C1224.99 843.988 1226.54 845.989 1226.26 848.181C1226.01 850.201 1224.28 851.679 1222.3 851.679ZM1153.36 871.687C1152.12 871.687 1150.9 871.115 1150.12 870.036C1148.82 868.248 1149.22 865.747 1151.01 864.449C1155.67 861.067 1160.47 858.032 1165.27 855.432C1167.21 854.38 1169.64 855.101 1170.69 857.044C1171.74 858.987 1171.02 861.415 1169.07 862.467C1164.58 864.9 1160.09 867.745 1155.71 870.924C1155 871.439 1154.18 871.687 1153.36 871.687ZM1273.08 875.997C1272.13 875.997 1271.18 875.663 1270.42 874.981C1266.39 871.388 1262.2 868.148 1257.96 865.351C1256.11 864.135 1255.6 861.655 1256.82 859.809C1258.04 857.965 1260.52 857.456 1262.36 858.672C1266.93 861.683 1271.43 865.161 1275.75 869.015C1277.39 870.485 1277.54 873.013 1276.07 874.661C1275.28 875.547 1274.18 875.997 1273.08 875.997ZM1113.98 912.872C1113.19 912.872 1112.4 912.641 1111.71 912.16C1109.89 910.903 1109.44 908.409 1110.7 906.595C1113.88 901.993 1117.27 897.516 1120.76 893.285C1122.16 891.58 1124.68 891.336 1126.39 892.744C1128.09 894.149 1128.33 896.671 1126.93 898.375C1123.58 902.435 1120.33 906.732 1117.27 911.149C1116.5 912.271 1115.25 912.872 1113.98 912.872ZM1307.64 921.273C1306.22 921.273 1304.84 920.513 1304.12 919.175C1301.53 914.381 1298.78 909.739 1295.95 905.377C1294.75 903.524 1295.28 901.047 1297.13 899.845C1298.99 898.644 1301.46 899.171 1302.66 901.023C1305.61 905.564 1308.46 910.391 1311.16 915.371C1312.21 917.315 1311.48 919.741 1309.54 920.792C1308.93 921.119 1308.28 921.273 1307.64 921.273ZM1087.47 963.455C1086.98 963.455 1086.48 963.364 1085.99 963.169C1083.94 962.352 1082.94 960.027 1083.76 957.973C1085.8 952.855 1088 947.736 1090.32 942.759C1091.25 940.753 1093.63 939.887 1095.63 940.817C1097.64 941.749 1098.5 944.128 1097.57 946.132C1095.32 950.975 1093.17 955.955 1091.19 960.933C1090.57 962.5 1089.06 963.455 1087.47 963.455ZM1329.19 974.196C1327.48 974.196 1325.9 973.091 1325.37 971.371C1323.78 966.219 1322.06 961.061 1320.26 956.04C1319.51 953.961 1320.59 951.669 1322.67 950.921C1324.74 950.176 1327.04 951.253 1327.78 953.331C1329.63 958.471 1331.39 963.749 1333.01 969.019C1333.67 971.131 1332.48 973.368 1330.37 974.017C1329.97 974.139 1329.58 974.196 1329.19 974.196ZM1071.55 1018.32C1071.3 1018.32 1071.05 1018.3 1070.8 1018.25C1068.63 1017.84 1067.2 1015.75 1067.61 1013.58C1068.64 1008.17 1069.82 1002.72 1071.13 997.393C1071.66 995.249 1073.83 993.932 1075.98 994.465C1078.12 994.993 1079.43 997.16 1078.9 999.307C1077.62 1004.49 1076.47 1009.8 1075.47 1015.07C1075.11 1016.99 1073.43 1018.32 1071.55 1018.32ZM1341.51 1030.01C1339.55 1030.01 1337.83 1028.57 1337.56 1026.56C1336.81 1021.23 1335.95 1015.86 1334.97 1010.6C1334.57 1008.43 1336.01 1006.34 1338.19 1005.94C1340.33 1005.54 1342.44 1006.97 1342.84 1009.15C1343.84 1014.52 1344.72 1020.01 1345.48 1025.47C1345.79 1027.65 1344.25 1029.67 1342.07 1029.98C1341.88 1030 1341.69 1030.01 1341.51 1030.01ZM2166.25 1035.75C2165 1035.75 2163.76 1035.16 2162.99 1034.06C2161.71 1032.26 2162.13 1029.76 2163.95 1028.49C2168.39 1025.34 2172.81 1022.19 2177.24 1019.02C2179.03 1017.73 2181.53 1018.14 2182.81 1019.94C2184.11 1021.73 2183.69 1024.23 2181.89 1025.52C2177.47 1028.7 2173.01 1031.87 2168.56 1035.02C2167.85 1035.51 2167.05 1035.75 2166.25 1035.75ZM2119.17 1068.27C2117.89 1068.27 2116.63 1067.65 2115.85 1066.51C2114.61 1064.68 2115.11 1062.19 2116.93 1060.96C2121.44 1057.91 2125.95 1054.86 2130.44 1051.79C2132.27 1050.54 2134.75 1051.01 2136 1052.83C2137.24 1054.65 2136.77 1057.14 2134.95 1058.39C2130.45 1061.47 2125.93 1064.54 2121.41 1067.59C2120.72 1068.05 2119.95 1068.27 2119.17 1068.27ZM1066.21 1075.21C1066.21 1075.21 1066.21 1075.21 1066.2 1075.21C1064 1075.21 1062.21 1073.42 1062.21 1071.21C1062.21 1065.72 1062.36 1060.15 1062.65 1054.66C1062.77 1052.45 1064.68 1050.76 1066.86 1050.88C1069.06 1051 1070.75 1052.88 1070.64 1055.09C1070.35 1060.43 1070.21 1065.86 1070.21 1071.21C1070.21 1073.42 1068.41 1075.21 1066.21 1075.21ZM1344.93 1087.08C1344.92 1087.08 1344.89 1087.08 1344.87 1087.08C1342.65 1087.04 1340.89 1085.22 1340.93 1083.01C1340.97 1080.91 1340.99 1078.81 1340.99 1076.71C1340.99 1073.43 1340.95 1070.11 1340.85 1066.84C1340.8 1064.63 1342.55 1062.79 1344.75 1062.73C1347 1062.64 1348.8 1064.42 1348.85 1066.63C1348.95 1069.97 1348.99 1073.37 1348.99 1076.71C1348.99 1078.86 1348.97 1081 1348.93 1083.15C1348.89 1085.33 1347.12 1087.08 1344.93 1087.08ZM2071.39 1099.74C2070.07 1099.74 2068.79 1099.1 2068.01 1097.91C2066.83 1096.05 2067.36 1093.57 2069.21 1092.38C2073.8 1089.44 2078.36 1086.48 2082.92 1083.51C2084.77 1082.3 2087.25 1082.83 2088.45 1084.68C2089.67 1086.53 2089.15 1089.01 2087.29 1090.21C2082.72 1093.19 2078.13 1096.16 2073.55 1099.11C2072.88 1099.54 2072.13 1099.74 2071.39 1099.74ZM2022.92 1130.15C2021.57 1130.15 2020.25 1129.47 2019.49 1128.24C2018.35 1126.36 2018.93 1123.89 2020.83 1122.74C2025.47 1119.9 2030.09 1117.05 2034.72 1114.18C2036.59 1113.01 2039.05 1113.59 2040.23 1115.47C2041.39 1117.34 2040.81 1119.81 2038.93 1120.97C2034.31 1123.85 2029.65 1126.71 2025 1129.56C2024.35 1129.96 2023.63 1130.15 2022.92 1130.15ZM1071.53 1132.11C1069.65 1132.11 1067.97 1130.77 1067.61 1128.85C1066.58 1123.45 1065.69 1117.95 1064.96 1112.5C1064.67 1110.31 1066.2 1108.3 1068.39 1108C1070.59 1107.72 1072.6 1109.25 1072.89 1111.43C1073.6 1116.74 1074.47 1122.1 1075.47 1127.36C1075.88 1129.53 1074.45 1131.62 1072.28 1132.03C1072.03 1132.08 1071.78 1132.11 1071.53 1132.11ZM1339.67 1144.01C1339.44 1144.01 1339.21 1143.99 1338.99 1143.95C1336.81 1143.58 1335.35 1141.51 1335.71 1139.34C1336.61 1134.05 1337.4 1128.66 1338.07 1123.33C1338.35 1121.14 1340.35 1119.6 1342.53 1119.86C1344.73 1120.14 1346.28 1122.14 1346.01 1124.33C1345.32 1129.77 1344.52 1135.27 1343.6 1140.67C1343.27 1142.62 1341.57 1144.01 1339.67 1144.01ZM488.916 1145.82C486.894 1145.82 485.158 1144.3 484.943 1142.24C484.715 1140.04 486.31 1138.07 488.507 1137.85C493.97 1137.28 499.514 1136.83 504.99 1136.52C507.194 1136.41 509.084 1138.08 509.211 1140.28C509.336 1142.49 507.651 1144.38 505.444 1144.51C500.094 1144.81 494.674 1145.25 489.335 1145.8C489.195 1145.82 489.055 1145.82 488.916 1145.82ZM562.371 1145.88C562.231 1145.88 562.09 1145.87 561.947 1145.85C556.614 1145.29 551.194 1144.85 545.838 1144.54C543.632 1144.41 541.95 1142.52 542.078 1140.31C542.207 1138.1 544.107 1136.45 546.304 1136.55C551.783 1136.87 557.328 1137.32 562.786 1137.9C564.982 1138.13 566.576 1140.1 566.344 1142.3C566.128 1144.35 564.392 1145.88 562.371 1145.88ZM432.754 1156.41C430.999 1156.41 429.388 1155.24 428.899 1153.47C428.312 1151.34 429.562 1149.14 431.691 1148.55C436.967 1147.09 442.363 1145.74 447.732 1144.53C449.884 1144.04 452.028 1145.4 452.515 1147.55C453 1149.71 451.647 1151.85 449.492 1152.33C444.246 1153.52 438.972 1154.84 433.819 1156.26C433.464 1156.36 433.106 1156.41 432.754 1156.41ZM618.534 1156.51C618.178 1156.51 617.818 1156.46 617.459 1156.36C612.316 1154.93 607.047 1153.61 601.795 1152.42C599.639 1151.93 598.288 1149.79 598.775 1147.63C599.262 1145.48 601.402 1144.13 603.559 1144.62C608.938 1145.83 614.334 1147.19 619.603 1148.65C621.731 1149.25 622.976 1151.45 622.386 1153.58C621.892 1155.35 620.284 1156.51 618.534 1156.51ZM1973.79 1159.49C1972.41 1159.49 1971.07 1158.78 1970.33 1157.5C1969.21 1155.6 1969.87 1153.15 1971.77 1152.03C1976.47 1149.29 1981.16 1146.54 1985.85 1143.77C1987.75 1142.65 1990.2 1143.28 1991.33 1145.19C1992.45 1147.09 1991.81 1149.54 1989.92 1150.66C1985.21 1153.44 1980.51 1156.2 1975.8 1158.95C1975.16 1159.32 1974.47 1159.49 1973.79 1159.49ZM379.135 1176.15C377.63 1176.15 376.187 1175.29 375.507 1173.84C374.574 1171.84 375.439 1169.46 377.442 1168.52C382.415 1166.2 387.511 1163.97 392.587 1161.89C394.632 1161.06 396.968 1162.03 397.806 1164.08C398.643 1166.12 397.664 1168.46 395.62 1169.3C390.662 1171.33 385.683 1173.51 380.824 1175.77C380.276 1176.03 379.702 1176.15 379.135 1176.15ZM671.966 1176.76C671.37 1176.76 670.766 1176.63 670.195 1176.34C665.448 1173.99 660.52 1171.73 655.546 1169.62C653.511 1168.76 652.562 1166.41 653.426 1164.38C654.288 1162.35 656.635 1161.4 658.67 1162.26C663.786 1164.43 668.858 1166.76 673.742 1169.17C675.722 1170.15 676.534 1172.55 675.554 1174.53C674.856 1175.94 673.439 1176.76 671.966 1176.76ZM1087.52 1186.96C1085.93 1186.96 1084.43 1186.01 1083.8 1184.45C1081.76 1179.33 1079.83 1174.1 1078.08 1168.89C1077.38 1166.8 1078.5 1164.53 1080.6 1163.83C1082.7 1163.12 1084.96 1164.25 1085.66 1166.34C1087.37 1171.41 1089.24 1176.5 1091.23 1181.47C1092.05 1183.53 1091.05 1185.85 1089 1186.67C1088.52 1186.87 1088.01 1186.96 1087.52 1186.96ZM1924.03 1187.75C1922.63 1187.75 1921.25 1187 1920.52 1185.68C1919.45 1183.75 1920.16 1181.31 1922.09 1180.24C1926.85 1177.61 1931.6 1174.96 1936.35 1172.3C1938.27 1171.21 1940.71 1171.9 1941.79 1173.82C1942.87 1175.75 1942.19 1178.19 1940.27 1179.27C1935.51 1181.94 1930.73 1184.6 1925.96 1187.24C1925.35 1187.58 1924.68 1187.75 1924.03 1187.75ZM1325.93 1199.5C1325.51 1199.5 1325.09 1199.44 1324.68 1199.3C1322.58 1198.61 1321.44 1196.35 1322.12 1194.25C1323.8 1189.16 1325.39 1183.95 1326.84 1178.78C1327.44 1176.65 1329.65 1175.42 1331.78 1176.01C1333.91 1176.61 1335.15 1178.82 1334.55 1180.95C1333.05 1186.23 1331.43 1191.55 1329.72 1196.75C1329.17 1198.43 1327.61 1199.5 1325.93 1199.5ZM329.526 1204.5C328.25 1204.5 326.998 1203.89 326.222 1202.76C324.974 1200.94 325.439 1198.45 327.26 1197.2C331.803 1194.09 336.462 1191.05 341.106 1188.17C342.983 1187.01 345.45 1187.59 346.612 1189.47C347.775 1191.35 347.196 1193.81 345.318 1194.98C340.778 1197.79 336.224 1200.76 331.783 1203.8C331.091 1204.27 330.304 1204.5 329.526 1204.5ZM720.282 1207.25C719.446 1207.25 718.604 1206.99 717.884 1206.45C713.494 1203.16 709.076 1199.97 704.756 1196.97C702.943 1195.71 702.492 1193.22 703.752 1191.4C705.01 1189.59 707.502 1189.14 709.319 1190.4C713.72 1193.45 718.216 1196.7 722.686 1200.05C724.452 1201.38 724.81 1203.89 723.484 1205.65C722.699 1206.7 721.498 1207.25 720.282 1207.25ZM1873.67 1214.91C1872.23 1214.91 1870.84 1214.13 1870.12 1212.76C1869.09 1210.81 1869.84 1208.39 1871.8 1207.36C1876.61 1204.83 1881.43 1202.29 1886.23 1199.73C1888.19 1198.69 1890.6 1199.43 1891.64 1201.37C1892.68 1203.32 1891.95 1205.75 1889.99 1206.79C1885.17 1209.35 1880.35 1211.91 1875.52 1214.45C1874.92 1214.76 1874.29 1214.91 1873.67 1214.91ZM1113.92 1237.63C1112.61 1237.63 1111.33 1236.99 1110.56 1235.82C1107.54 1231.19 1104.62 1226.44 1101.88 1221.7C1100.78 1219.79 1101.44 1217.34 1103.35 1216.24C1105.26 1215.14 1107.71 1215.79 1108.81 1217.71C1111.47 1222.32 1114.32 1226.94 1117.26 1231.44C1118.47 1233.29 1117.95 1235.77 1116.1 1236.98C1115.43 1237.42 1114.67 1237.63 1113.92 1237.63ZM285.052 1240.38C283.987 1240.38 282.924 1239.96 282.138 1239.12C280.624 1237.51 280.702 1234.98 282.31 1233.47C286.324 1229.69 290.45 1225.97 294.572 1222.41C296.243 1220.97 298.77 1221.15 300.214 1222.82C301.658 1224.49 301.472 1227.02 299.802 1228.47C295.764 1231.95 291.724 1235.6 287.792 1239.29C287.02 1240.02 286.035 1240.38 285.052 1240.38ZM1822.72 1240.96C1821.25 1240.96 1819.84 1240.15 1819.13 1238.74C1818.15 1236.77 1818.96 1234.36 1820.93 1233.38C1825.8 1230.95 1830.67 1228.51 1835.52 1226.06C1837.49 1225.06 1839.91 1225.85 1840.89 1227.82C1841.89 1229.8 1841.11 1232.2 1839.13 1233.2C1834.27 1235.66 1829.39 1238.11 1824.49 1240.54C1823.92 1240.83 1823.32 1240.96 1822.72 1240.96ZM764.235 1243.86C763.278 1243.86 762.319 1243.52 761.554 1242.83C757.402 1239.07 753.308 1235.44 749.383 1232.03C747.716 1230.58 747.538 1228.06 748.987 1226.39C750.436 1224.72 752.963 1224.55 754.63 1225.99C758.595 1229.44 762.73 1233.11 766.92 1236.9C768.558 1238.38 768.684 1240.91 767.203 1242.55C766.414 1243.42 765.327 1243.86 764.235 1243.86ZM1304.01 1252.3C1303.4 1252.3 1302.78 1252.16 1302.21 1251.87C1300.23 1250.87 1299.45 1248.46 1300.45 1246.49C1302.87 1241.71 1305.23 1236.81 1307.45 1231.91C1308.36 1229.9 1310.73 1229.01 1312.74 1229.92C1314.76 1230.83 1315.65 1233.21 1314.73 1235.22C1312.47 1240.22 1310.06 1245.23 1307.58 1250.11C1306.88 1251.5 1305.47 1252.3 1304.01 1252.3ZM1771.23 1265.9C1769.72 1265.9 1768.28 1265.05 1767.6 1263.61C1766.65 1261.61 1767.52 1259.23 1769.52 1258.28C1774.44 1255.97 1779.35 1253.63 1784.25 1251.28C1786.25 1250.33 1788.64 1251.17 1789.6 1253.17C1790.55 1255.16 1789.71 1257.55 1787.71 1258.5C1782.79 1260.86 1777.85 1263.2 1772.92 1265.52C1772.37 1265.78 1771.79 1265.9 1771.23 1265.9ZM1149.55 1282.3C1148.51 1282.3 1147.46 1281.89 1146.67 1281.07C1142.85 1277.09 1139.09 1272.98 1135.51 1268.84C1134.06 1267.17 1134.25 1264.64 1135.92 1263.2C1137.59 1261.75 1140.11 1261.93 1141.56 1263.6C1145.05 1267.64 1148.71 1271.65 1152.44 1275.53C1153.97 1277.12 1153.92 1279.65 1152.33 1281.18C1151.55 1281.93 1150.55 1282.3 1149.55 1282.3ZM246.312 1282.4C245.435 1282.4 244.551 1282.12 243.811 1281.52C242.088 1280.14 241.814 1277.62 243.195 1275.9C246.634 1271.62 250.19 1267.36 253.763 1263.24C255.211 1261.57 257.736 1261.39 259.406 1262.84C261.075 1264.28 261.254 1266.81 259.806 1268.48C256.299 1272.52 252.81 1276.7 249.435 1280.91C248.644 1281.89 247.484 1282.4 246.312 1282.4ZM805.858 1283.13C804.858 1283.13 803.856 1282.76 803.08 1282.01C799.16 1278.23 795.239 1274.45 791.308 1270.68C789.714 1269.15 789.66 1266.62 791.188 1265.03C792.72 1263.43 795.251 1263.38 796.844 1264.91C800.78 1268.68 804.71 1272.47 808.635 1276.25C810.224 1277.79 810.271 1280.32 808.736 1281.91C807.951 1282.72 806.904 1283.13 805.858 1283.13ZM1719.19 1289.72C1717.65 1289.72 1716.2 1288.84 1715.53 1287.35C1714.64 1285.33 1715.55 1282.96 1717.56 1282.07C1722.53 1279.85 1727.51 1277.63 1732.45 1275.39C1734.48 1274.47 1736.84 1275.37 1737.75 1277.38C1738.67 1279.4 1737.77 1281.77 1735.76 1282.68C1730.79 1284.93 1725.8 1287.16 1720.81 1289.38C1720.29 1289.61 1719.73 1289.72 1719.19 1289.72ZM1274.25 1301.11C1273.44 1301.11 1272.62 1300.86 1271.91 1300.35C1270.12 1299.05 1269.72 1296.55 1271.02 1294.76C1274.15 1290.44 1277.23 1285.96 1280.19 1281.45C1281.41 1279.61 1283.89 1279.09 1285.73 1280.3C1287.58 1281.52 1288.09 1284 1286.88 1285.84C1283.85 1290.45 1280.7 1295.03 1277.5 1299.45C1276.72 1300.53 1275.49 1301.11 1274.25 1301.11ZM1666.65 1312.4C1665.09 1312.4 1663.61 1311.48 1662.97 1309.95C1662.11 1307.91 1663.07 1305.57 1665.11 1304.71C1670.13 1302.61 1675.15 1300.49 1680.15 1298.36C1682.19 1297.49 1684.53 1298.44 1685.4 1300.47C1686.25 1302.5 1685.32 1304.85 1683.28 1305.72C1678.27 1307.86 1673.24 1309.98 1668.2 1312.09C1667.69 1312.3 1667.17 1312.4 1666.65 1312.4ZM1192.63 1319.86C1191.82 1319.86 1190.99 1319.61 1190.28 1319.1C1185.84 1315.86 1181.42 1312.47 1177.15 1309.02C1175.44 1307.63 1175.17 1305.11 1176.55 1303.39C1177.94 1301.67 1180.46 1301.4 1182.18 1302.79C1186.35 1306.16 1190.66 1309.47 1194.99 1312.63C1196.78 1313.93 1197.17 1316.44 1195.87 1318.22C1195.08 1319.29 1193.87 1319.86 1192.63 1319.86ZM847.386 1322.5C846.422 1322.5 845.456 1322.15 844.688 1321.45C840.847 1317.95 836.911 1314.3 832.658 1310.3C831.047 1308.79 830.967 1306.26 832.48 1304.65C833.99 1303.04 836.523 1302.96 838.134 1304.47C842.36 1308.44 846.27 1312.06 850.084 1315.55C851.715 1317.04 851.831 1319.57 850.339 1321.2C849.551 1322.06 848.47 1322.5 847.386 1322.5ZM213.376 1329.12C212.658 1329.12 211.93 1328.93 211.274 1328.52C209.395 1327.36 208.816 1324.89 209.979 1323.02C212.884 1318.33 215.879 1313.67 218.882 1309.16C220.107 1307.32 222.588 1306.82 224.428 1308.05C226.267 1309.27 226.766 1311.75 225.54 1313.59C222.586 1318.03 219.639 1322.62 216.779 1327.23C216.023 1328.45 214.715 1329.12 213.376 1329.12ZM1613.6 1333.85C1612 1333.85 1610.48 1332.88 1609.87 1331.29C1609.08 1329.23 1610.11 1326.91 1612.16 1326.12C1617.24 1324.16 1622.31 1322.17 1627.35 1320.17C1629.4 1319.35 1631.72 1320.35 1632.55 1322.41C1633.36 1324.46 1632.36 1326.78 1630.31 1327.6C1625.24 1329.62 1620.15 1331.61 1615.04 1333.59C1614.57 1333.76 1614.08 1333.85 1613.6 1333.85ZM1241.51 1349.49C1240.92 1349.49 1240.31 1349.36 1239.74 1349.08C1234.82 1346.64 1229.89 1344.05 1225.1 1341.37C1223.17 1340.31 1222.48 1337.87 1223.55 1335.93C1224.63 1334.01 1227.06 1333.32 1228.99 1334.39C1230.83 1335.41 1232.7 1336.43 1234.57 1337.43C1238.3 1333.75 1241.98 1329.92 1245.51 1326.06C1247.01 1324.44 1249.54 1324.33 1251.17 1325.82C1252.79 1327.31 1252.9 1329.84 1251.41 1331.47C1248.37 1334.79 1245.22 1338.08 1242.03 1341.28C1242.45 1341.49 1242.87 1341.71 1243.29 1341.91C1245.27 1342.89 1246.08 1345.29 1245.1 1347.27C1244.4 1348.68 1242.99 1349.49 1241.51 1349.49ZM1559.73 1353.16C1558.05 1353.16 1556.49 1352.09 1555.93 1350.4C1555.25 1348.31 1556.4 1346.04 1558.49 1345.36C1563.51 1343.72 1568.69 1341.96 1573.92 1340.16C1576.01 1339.44 1578.29 1340.55 1579.01 1342.63C1579.73 1344.72 1578.63 1347 1576.55 1347.72C1571.27 1349.55 1566.04 1351.31 1560.99 1352.96C1560.57 1353.09 1560.15 1353.16 1559.73 1353.16ZM891.162 1359.35C890.319 1359.35 889.47 1359.08 888.747 1358.53C884.467 1355.28 880.103 1351.87 875.775 1348.36C874.056 1346.97 873.791 1344.45 875.18 1342.73C876.57 1341.01 879.087 1340.75 880.806 1342.15C885.068 1345.59 889.367 1348.96 893.58 1352.16C895.34 1353.49 895.686 1356 894.351 1357.76C893.563 1358.8 892.37 1359.35 891.162 1359.35ZM1504.75 1368.99C1502.95 1368.99 1501.31 1367.77 1500.87 1365.95C1500.35 1363.8 1501.65 1361.63 1503.8 1361.11C1508.93 1359.85 1514.23 1358.48 1519.53 1357.05C1521.67 1356.47 1523.87 1357.73 1524.44 1359.87C1525.03 1362 1523.76 1364.19 1521.63 1364.77C1516.25 1366.23 1510.89 1367.6 1505.71 1368.88C1505.39 1368.96 1505.07 1368.99 1504.75 1368.99ZM1294.73 1370.39C1294.35 1370.39 1293.97 1370.33 1293.59 1370.21C1288.34 1368.67 1283.04 1366.96 1277.84 1365.13C1275.76 1364.4 1274.66 1362.12 1275.39 1360.03C1276.12 1357.95 1278.41 1356.85 1280.49 1357.59C1285.56 1359.36 1290.73 1361.03 1295.86 1362.55C1297.98 1363.17 1299.19 1365.4 1298.56 1367.52C1298.05 1369.25 1296.45 1370.39 1294.73 1370.39ZM185.928 1379.28C185.346 1379.28 184.752 1379.15 184.192 1378.88C182.203 1377.92 181.368 1375.53 182.33 1373.53C184.716 1368.6 187.192 1363.64 189.691 1358.83C190.707 1356.85 193.122 1356.09 195.082 1357.11C197.043 1358.13 197.81 1360.55 196.794 1362.51C194.331 1367.25 191.887 1372.13 189.534 1377.01C188.844 1378.44 187.415 1379.28 185.928 1379.28ZM1448.57 1379.8C1446.6 1379.8 1444.89 1378.35 1444.61 1376.35C1444.32 1374.16 1445.85 1372.13 1448.04 1371.84C1453.31 1371.12 1458.69 1370.29 1464.07 1369.39C1466.25 1369.01 1468.32 1370.48 1468.68 1372.65C1469.05 1374.83 1467.59 1376.89 1465.41 1377.27C1459.95 1378.2 1454.47 1379.04 1449.12 1379.76C1448.93 1379.79 1448.76 1379.8 1448.57 1379.8ZM1193.07 1380.96C1191.79 1380.96 1190.54 1380.35 1189.77 1379.21C1188.52 1377.39 1188.99 1374.89 1190.81 1373.65C1195.2 1370.65 1199.6 1367.47 1203.89 1364.2C1205.64 1362.85 1208.15 1363.19 1209.49 1364.95C1210.84 1366.69 1210.5 1369.21 1208.75 1370.55C1204.35 1373.91 1199.83 1377.17 1195.33 1380.25C1194.63 1380.73 1193.85 1380.96 1193.07 1380.96ZM1350.76 1381.67C1350.61 1381.67 1350.47 1381.67 1350.31 1381.64C1347.07 1381.28 1343.77 1380.87 1340.53 1380.41C1338.32 1380.11 1336.11 1379.77 1333.91 1379.41C1331.73 1379.07 1330.25 1377.01 1330.6 1374.83C1330.95 1372.64 1333.01 1371.16 1335.19 1371.52C1337.33 1371.87 1339.49 1372.19 1341.64 1372.49C1344.81 1372.93 1348.03 1373.35 1351.19 1373.69C1353.39 1373.93 1354.97 1375.92 1354.73 1378.11C1354.51 1380.16 1352.77 1381.67 1350.76 1381.67ZM1391.55 1383.87C1389.35 1383.87 1387.55 1382.08 1387.55 1379.87C1387.55 1377.65 1389.33 1375.87 1391.53 1375.87C1396.87 1375.85 1402.31 1375.73 1407.72 1375.49C1409.91 1375.4 1411.79 1377.12 1411.88 1379.32C1411.99 1381.53 1410.27 1383.4 1408.07 1383.49C1402.55 1383.73 1396.99 1383.85 1391.55 1383.87ZM938.884 1390.85C938.222 1390.85 937.554 1390.68 936.935 1390.33C932.206 1387.69 927.415 1384.87 922.698 1381.95C920.82 1380.77 920.242 1378.31 921.406 1376.44C922.57 1374.56 925.035 1373.97 926.914 1375.15C931.53 1378 936.216 1380.77 940.84 1383.36C942.77 1384.44 943.456 1386.87 942.379 1388.8C941.646 1390.11 940.284 1390.85 938.884 1390.85ZM1142.89 1408.25C1141.31 1408.25 1139.82 1407.32 1139.19 1405.77C1138.34 1403.73 1139.32 1401.39 1141.36 1400.55C1146.26 1398.53 1151.2 1396.31 1156.04 1393.95C1158.02 1392.97 1160.42 1393.8 1161.39 1395.79C1162.36 1397.77 1161.53 1400.16 1159.55 1401.13C1154.55 1403.57 1149.46 1405.87 1144.41 1407.95C1143.91 1408.15 1143.39 1408.25 1142.89 1408.25ZM991.092 1414.05C990.68 1414.05 990.262 1413.99 989.848 1413.85C984.675 1412.16 979.427 1410.27 974.248 1408.2C972.196 1407.39 971.194 1405.07 972.008 1403.01C972.826 1400.96 975.148 1399.96 977.204 1400.77C982.227 1402.76 987.319 1404.61 992.335 1406.25C994.435 1406.93 995.58 1409.2 994.894 1411.29C994.342 1412.99 992.776 1414.05 991.092 1414.05ZM1087.86 1423.4C1085.9 1423.4 1084.19 1421.96 1083.91 1419.96C1083.6 1417.77 1085.12 1415.75 1087.31 1415.44C1092.54 1414.71 1097.85 1413.76 1103.09 1412.6C1105.25 1412.13 1107.38 1413.49 1107.86 1415.65C1108.33 1417.81 1106.96 1419.95 1104.81 1420.43C1099.36 1421.61 1093.85 1422.6 1088.42 1423.37C1088.24 1423.4 1088.05 1423.4 1087.86 1423.4ZM1047.09 1425.01C1047.01 1425.01 1046.93 1425.01 1046.84 1425.01C1041.36 1424.67 1035.79 1424.11 1030.27 1423.33C1028.08 1423.03 1026.56 1421 1026.87 1418.81C1027.17 1416.63 1029.19 1415.11 1031.38 1415.41C1036.69 1416.16 1042.06 1416.69 1047.34 1417.03C1049.54 1417.16 1051.22 1419.05 1051.08 1421.27C1050.95 1423.39 1049.19 1425.01 1047.09 1425.01ZM164.9 1428.07C164.423 1428.07 163.94 1427.99 163.468 1427.8C161.406 1427.01 160.375 1424.69 161.166 1422.64C162.639 1418.8 164.164 1414.92 165.698 1411.13C166.526 1409.08 168.859 1408.11 170.906 1408.93C172.954 1409.76 173.942 1412.09 173.112 1414.13C171.598 1417.88 170.091 1421.71 168.636 1425.51C168.024 1427.09 166.508 1428.07 164.9 1428.07Z" fill="#3C57AF"/>
<path d="M2646 1467.4C2646 1483.89 2552.88 1497.27 2438 1497.27C2323.12 1497.27 2230 1483.89 2230 1467.4C2230 1450.91 2323.12 1437.55 2438 1437.55C2552.88 1437.55 2646 1450.91 2646 1467.4Z" fill="#D5D7D4"/>
</svg>
