<svg width="473" height="150" viewBox="0 0 673 150" fill="none" xmlns="http://www.w3.org/2000/svg">
<path fill-rule="evenodd" clip-rule="evenodd" d="M28.745 142.068L0 113.325L0.006 75.011L38.321 75.005L67.065 103.749C77.638 114.323 77.638 131.497 67.065 142.069C56.492 152.649 39.318 152.648 28.745 142.068Z" fill="#5200FF"/>
<path fill-rule="evenodd" clip-rule="evenodd" d="M9.58698 46.255C-0.986023 35.675 -0.986023 18.507 9.58698 7.935C20.16 -2.645 37.334 -2.645 47.907 7.935L76.653 36.672V74.992L38.333 74.998L9.58698 46.255Z" fill="#5200FF"/>
<path d="M104.016 98V53.2H110.864L130.448 85.904H126.864L146.128 53.2H152.976L153.04 98H145.168L145.104 65.552H146.768L130.384 92.88H126.672L110.032 65.552H111.952V98H104.016ZM175.253 98.448C171.754 98.448 168.64 97.7013 165.909 96.208C163.178 94.672 161.024 92.5813 159.445 89.936C157.866 87.2907 157.077 84.2827 157.077 80.912C157.077 77.4987 157.866 74.4907 159.445 71.888C161.024 69.2427 163.178 67.1733 165.909 65.68C168.64 64.1867 171.754 63.44 175.253 63.44C178.794 63.44 181.93 64.1867 184.661 65.68C187.434 67.1733 189.589 69.2213 191.125 71.824C192.704 74.4267 193.493 77.456 193.493 80.912C193.493 84.2827 192.704 87.2907 191.125 89.936C189.589 92.5813 187.434 94.672 184.661 96.208C181.93 97.7013 178.794 98.448 175.253 98.448ZM175.253 91.6C177.216 91.6 178.965 91.1733 180.501 90.32C182.037 89.4667 183.232 88.2293 184.085 86.608C184.981 84.9867 185.429 83.088 185.429 80.912C185.429 78.6933 184.981 76.7947 184.085 75.216C183.232 73.5947 182.037 72.3573 180.501 71.504C178.965 70.6507 177.237 70.224 175.317 70.224C173.354 70.224 171.605 70.6507 170.069 71.504C168.576 72.3573 167.381 73.5947 166.485 75.216C165.589 76.7947 165.141 78.6933 165.141 80.912C165.141 83.088 165.589 84.9867 166.485 86.608C167.381 88.2293 168.576 89.4667 170.069 90.32C171.605 91.1733 173.333 91.6 175.253 91.6ZM209.527 98.448C205.772 98.448 202.871 97.488 200.823 95.568C198.775 93.6053 197.751 90.7253 197.751 86.928V56.272H205.751V86.736C205.751 88.3573 206.156 89.616 206.967 90.512C207.82 91.408 208.994 91.856 210.487 91.856C212.279 91.856 213.772 91.3867 214.967 90.448L217.207 96.144C216.268 96.912 215.116 97.488 213.751 97.872C212.386 98.256 210.978 98.448 209.527 98.448ZM192.119 70.48V64.08H214.903V70.48H192.119ZM219.308 98V63.824H227.308V98H219.308ZM223.34 58.192C221.847 58.192 220.609 57.7227 219.628 56.784C218.689 55.8453 218.22 54.7147 218.22 53.392C218.22 52.0267 218.689 50.896 219.628 50C220.609 49.0613 221.847 48.592 223.34 48.592C224.833 48.592 226.049 49.04 226.988 49.936C227.969 50.7893 228.46 51.8773 228.46 53.2C228.46 54.608 227.991 55.8027 227.052 56.784C226.113 57.7227 224.876 58.192 223.34 58.192ZM248.688 98.448C245.189 98.448 242.075 97.7013 239.344 96.208C236.613 94.672 234.459 92.5813 232.88 89.936C231.301 87.2907 230.512 84.2827 230.512 80.912C230.512 77.4987 231.301 74.4907 232.88 71.888C234.459 69.2427 236.613 67.1733 239.344 65.68C242.075 64.1867 245.189 63.44 248.688 63.44C252.229 63.44 255.365 64.1867 258.096 65.68C260.869 67.1733 263.024 69.2213 264.56 71.824C266.139 74.4267 266.928 77.456 266.928 80.912C266.928 84.2827 266.139 87.2907 264.56 89.936C263.024 92.5813 260.869 94.672 258.096 96.208C255.365 97.7013 252.229 98.448 248.688 98.448ZM248.688 91.6C250.651 91.6 252.4 91.1733 253.936 90.32C255.472 89.4667 256.667 88.2293 257.52 86.608C258.416 84.9867 258.864 83.088 258.864 80.912C258.864 78.6933 258.416 76.7947 257.52 75.216C256.667 73.5947 255.472 72.3573 253.936 71.504C252.4 70.6507 250.672 70.224 248.752 70.224C246.789 70.224 245.04 70.6507 243.504 71.504C242.011 72.3573 240.816 73.5947 239.92 75.216C239.024 76.7947 238.576 78.6933 238.576 80.912C238.576 83.088 239.024 84.9867 239.92 86.608C240.816 88.2293 242.011 89.4667 243.504 90.32C245.04 91.1733 246.768 91.6 248.688 91.6ZM289.49 63.44C292.221 63.44 294.653 63.9733 296.786 65.04C298.962 66.1067 300.669 67.7493 301.906 69.968C303.143 72.144 303.762 74.96 303.762 78.416V98H295.762V79.44C295.762 76.4107 295.037 74.1493 293.586 72.656C292.178 71.1627 290.194 70.416 287.634 70.416C285.757 70.416 284.093 70.8 282.642 71.568C281.191 72.336 280.061 73.488 279.25 75.024C278.482 76.5173 278.098 78.416 278.098 80.72V98H270.098V63.824H277.714V73.04L276.37 70.224C277.565 68.048 279.293 66.384 281.554 65.232C283.858 64.0373 286.503 63.44 289.49 63.44ZM310.198 98V53.2H328.63C332.598 53.2 335.99 53.84 338.806 55.12C341.665 56.4 343.862 58.2347 345.398 60.624C346.934 63.0133 347.702 65.8507 347.702 69.136C347.702 72.4213 346.934 75.2587 345.398 77.648C343.862 80.0373 341.665 81.872 338.806 83.152C335.99 84.432 332.598 85.072 328.63 85.072H314.806L318.518 81.168V98H310.198ZM318.518 82.064L314.806 78.032H328.246C331.916 78.032 334.668 77.264 336.502 75.728C338.38 74.1493 339.318 71.952 339.318 69.136C339.318 66.2773 338.38 64.08 336.502 62.544C334.668 61.008 331.916 60.24 328.246 60.24H314.806L318.518 56.144V82.064ZM371.507 98V91.088L371.059 89.616V77.52C371.059 75.1733 370.355 73.36 368.947 72.08C367.539 70.7573 365.405 70.096 362.547 70.096C360.627 70.096 358.728 70.3947 356.851 70.992C355.016 71.5893 353.459 72.4213 352.178 73.488L349.042 67.664C350.877 66.256 353.053 65.2107 355.57 64.528C358.131 63.8027 360.776 63.44 363.507 63.44C368.456 63.44 372.275 64.6347 374.963 67.024C377.693 69.3707 379.059 73.0187 379.059 77.968V98H371.507ZM360.755 98.448C358.195 98.448 355.955 98.0213 354.035 97.168C352.114 96.272 350.621 95.056 349.554 93.52C348.53 91.9413 348.018 90.1707 348.018 88.208C348.018 86.288 348.466 84.56 349.362 83.024C350.301 81.488 351.816 80.272 353.906 79.376C355.997 78.48 358.77 78.032 362.226 78.032H372.147V83.344H362.802C360.072 83.344 358.237 83.792 357.299 84.688C356.36 85.5413 355.891 86.608 355.891 87.888C355.891 89.3387 356.466 90.4907 357.618 91.344C358.771 92.1973 360.371 92.624 362.419 92.624C364.381 92.624 366.131 92.176 367.667 91.28C369.245 90.384 370.376 89.0613 371.059 87.312L372.403 92.112C371.634 94.1173 370.248 95.6747 368.243 96.784C366.28 97.8933 363.784 98.448 360.755 98.448ZM404.238 63.44C406.968 63.44 409.4 63.9733 411.534 65.04C413.71 66.1067 415.416 67.7493 416.654 69.968C417.891 72.144 418.51 74.96 418.51 78.416V98H410.51V79.44C410.51 76.4107 409.784 74.1493 408.334 72.656C406.926 71.1627 404.942 70.416 402.382 70.416C400.504 70.416 398.84 70.8 397.39 71.568C395.939 72.336 394.808 73.488 393.998 75.024C393.23 76.5173 392.846 78.416 392.846 80.72V98H384.846V63.824H392.462V73.04L391.118 70.224C392.312 68.048 394.04 66.384 396.302 65.232C398.606 64.0373 401.251 63.44 404.238 63.44ZM440.304 98.448C436.507 98.448 433.179 97.7013 430.32 96.208C427.504 94.672 425.307 92.5813 423.728 89.936C422.192 87.2907 421.424 84.2827 421.424 80.912C421.424 77.4987 422.171 74.4907 423.664 71.888C425.2 69.2427 427.291 67.1733 429.936 65.68C432.624 64.1867 435.675 63.44 439.088 63.44C442.416 63.44 445.382 64.1653 447.984 65.616C450.587 67.0667 452.635 69.1147 454.128 71.76C455.622 74.4053 456.368 77.52 456.368 81.104C456.368 81.4453 456.347 81.8293 456.304 82.256C456.304 82.6827 456.283 83.088 456.24 83.472H427.76V78.16H452.016L448.88 79.824C448.923 77.8613 448.518 76.1333 447.664 74.64C446.811 73.1467 445.638 71.9733 444.144 71.12C442.694 70.2667 441.008 69.84 439.088 69.84C437.126 69.84 435.398 70.2667 433.904 71.12C432.454 71.9733 431.302 73.168 430.448 74.704C429.638 76.1973 429.232 77.968 429.232 80.016V81.296C429.232 83.344 429.702 85.1573 430.64 86.736C431.579 88.3147 432.902 89.5307 434.608 90.384C436.315 91.2373 438.278 91.664 440.496 91.664C442.416 91.664 444.144 91.3653 445.68 90.768C447.216 90.1707 448.582 89.232 449.776 87.952L454.064 92.88C452.528 94.672 450.587 96.0587 448.24 97.04C445.936 97.9787 443.291 98.448 440.304 98.448ZM459.573 98V50.512H467.573V98H459.573Z" fill="black"/>
</svg>
